<?xml version="1.0" standalone="no"?>
<!DOCTYPE svg PUBLIC "-//W3C//DTD SVG 20010904//EN"
 "http://www.w3.org/TR/2001/REC-SVG-20010904/DTD/svg10.dtd">
<svg version="1.0" xmlns="http://www.w3.org/2000/svg"
 width="256.000000pt" height="256.000000pt" viewBox="0 0 256.000000 256.000000"
 preserveAspectRatio="xMidYMid meet">
<metadata>
Created by potrace 1.14, written by Peter Selinger 2001-2017
</metadata>
<g transform="translate(0.000000,256.000000) scale(0.100000,-0.100000)"
fill="#000000" stroke="none">
<path d="M642 1775 c-86 -28 -142 -82 -171 -167 -17 -49 -19 -89 -20 -310 -1
-151 3 -275 9 -304 26 -120 82 -179 197 -209 85 -22 1171 -22 1256 0 105 27
161 81 191 183 22 78 22 547 0 624 -26 86 -65 133 -144 171 -45 22 -48 22
-660 23 -489 2 -624 -1 -658 -11z"/>
</g>
</svg>
